<?xml version="1.0" encoding="utf-8"?><svg xml:space="preserve" viewBox="0 0 100 100" y="0" x="0" xmlns="http://www.w3.org/2000/svg" id="圖層_1" version="1.1" width="128px" height="128px" xmlns:xlink="http://www.w3.org/1999/xlink" style="width:100%;height:100%;background-size:initial;background-repeat-y:initial;background-repeat-x:initial;background-position-y:initial;background-position-x:initial;background-origin:initial;background-color:initial;background-clip:initial;background-attachment:initial;animation-play-state:paused" ><g class="ldl-scale" style="transform-origin:50% 50%;transform:rotate(0deg) scale(0.8, 0.8);animation-play-state:paused" ><circle stroke-miterlimit="10" stroke-linejoin="round" stroke-linecap="round" stroke-width="3.5" stroke="#333" fill="#fff" r="30.75" cy="57.5" cx="50" style="stroke:rgb(51, 51, 51);fill:rgb(255, 255, 255);animation-play-state:paused" ></circle>
<path d="M40.293 11.75h19.415v7.5H40.293z" stroke-miterlimit="10" stroke-linejoin="round" stroke-linecap="round" stroke-width="3.5" stroke="#333" fill="#333" style="stroke:rgb(51, 51, 51);fill:rgb(51, 51, 51);animation-play-state:paused" ></path>
<path d="M45.5 17h9v9h-9z" fill="#333" style="fill:rgb(51, 51, 51);animation-play-state:paused" ></path>
<path d="M19.594 33.458l6.364-6.364 4.95 4.95-6.365 6.364z" stroke-miterlimit="10" stroke-linejoin="round" stroke-linecap="round" stroke-width="3.499965" stroke="#333" fill="#333" style="stroke:rgb(51, 51, 51);fill:rgb(51, 51, 51);animation-play-state:paused" ></path>
<path d="M75.456 38.409l-6.364-6.364 4.95-4.95 6.363 6.364z" stroke-miterlimit="10" stroke-linejoin="round" stroke-linecap="round" stroke-width="3.499965" stroke="#333" fill="#333" style="stroke:rgb(51, 51, 51);fill:rgb(51, 51, 51);animation-play-state:paused" ></path>
<path fill="#e0e0e0" d="M50 57.5L33.029 40.529A23.928 23.928 0 0 0 26 57.5h24z" style="fill:rgb(224, 224, 224);animation-play-state:paused" ></path>
<path fill="#e0e0e0" d="M26 57.5a23.928 23.928 0 0 0 7.029 16.971L50 57.5H26z" style="fill:rgb(224, 224, 224);animation-play-state:paused" ></path>
<path d="M50 57.5z" fill="#333" style="fill:rgb(51, 51, 51);animation-play-state:paused" ></path>
<path d="M50 57.5z" fill="#333" style="fill:rgb(51, 51, 51);animation-play-state:paused" ></path>
<path fill="#e0e0e0" d="M50 57.5v24a23.928 23.928 0 0 0 16.971-7.029L50 57.5z" style="fill:rgb(224, 224, 224);animation-play-state:paused" ></path>
<path fill="#e0e0e0" d="M50 57.5L33.029 74.471A23.928 23.928 0 0 0 50 81.5v-24z" style="fill:rgb(224, 224, 224);animation-play-state:paused" ></path>
<path fill="#77a4bd" d="M66.971 40.529A23.928 23.928 0 0 0 50 33.5v24l16.971-16.971z" style="fill:rgb(119, 164, 189);animation-play-state:paused" ></path>
<path fill="#e0e0e0" d="M50 33.5a23.928 23.928 0 0 0-16.971 7.029L50 57.5v-24z" style="fill:rgb(224, 224, 224);animation-play-state:paused" ></path>
<path fill="#77a4bd" d="M50 57.5h24a23.928 23.928 0 0 0-7.029-16.971L50 57.5z" style="fill:rgb(119, 164, 189);animation-play-state:paused" ></path>
<path fill="#77a4bd" d="M50 57.5l16.971 16.971A23.928 23.928 0 0 0 74 57.5H50z" style="fill:rgb(119, 164, 189);animation-play-state:paused" ></path>
<metadata xmlns:d="https://loading.io/stock/" style="animation-play-state:paused" ><d:name style="animation-play-state:paused" >timer</d:name>
<d:tags style="animation-play-state:paused" >timer,watch,stopwatch,elapse,countdown,timing,temporal</d:tags>
<d:license style="animation-play-state:paused" >by</d:license>
<d:slug style="animation-play-state:paused" >hrlcg9</d:slug></metadata></g><!-- generated by https://loading.io/ --></svg>